<svg width="17" height="11" viewBox="0 0 17 11" fill="none" xmlns="http://www.w3.org/2000/svg">
<path fill-rule="evenodd" clip-rule="evenodd" d="M0.187195 5.49962C0.187195 5.34214 0.24975 5.19112 0.3611 5.07977C0.47245 4.96842 0.623472 4.90587 0.780945 4.90587L14.7851 4.90587L11.0481 1.16999C10.9366 1.0585 10.8739 0.907287 10.8739 0.749616C10.8739 0.591945 10.9366 0.440732 11.0481 0.329241C11.1596 0.21775 11.3108 0.155117 11.4684 0.155117C11.6261 0.155117 11.7773 0.21775 11.8888 0.329241L16.6388 5.07924C16.6941 5.13439 16.738 5.19992 16.7679 5.27205C16.7978 5.34419 16.8133 5.42152 16.8133 5.49962C16.8133 5.57771 16.7978 5.65505 16.7679 5.72718C16.738 5.79932 16.6941 5.86484 16.6388 5.91999L11.8888 10.67C11.7773 10.7815 11.6261 10.8441 11.4684 10.8441C11.3108 10.8441 11.1596 10.7815 11.0481 10.67C10.9366 10.5585 10.8739 10.4073 10.8739 10.2496C10.8739 10.0919 10.9366 9.94073 11.0481 9.82924L14.7851 6.09337L0.780945 6.09337C0.623472 6.09337 0.47245 6.03081 0.3611 5.91946C0.24975 5.80811 0.187195 5.65709 0.187195 5.49962Z" fill="white"/>
</svg>
