<svg width="101" height="101" viewBox="0 0 101 101" fill="none" xmlns="http://www.w3.org/2000/svg">
<g filter="url(#filter0_f)">
<path d="M60.3975 45.2999C60.397 45.4946 60.3752 45.6886 60.3324 45.8788C59.5667 49.4984 57.7713 52.8331 55.1529 55.499C52.5288 58.1081 49.1876 59.9175 45.5338 60.7086C45.0784 60.8019 44.6062 60.779 44.1625 60.6421C43.7188 60.5052 43.3185 60.259 43.0003 59.9271L40.7213 57.6118C40.6069 57.4935 40.5194 57.353 40.4643 57.1994C40.4092 57.0458 40.3879 56.8826 40.4017 56.7204C40.4196 56.5522 40.475 56.3899 40.564 56.2449C40.653 56.0999 40.7733 55.9757 40.9166 55.8811L45.2911 52.9869C45.4609 52.8783 45.6617 52.826 45.8642 52.8374C46.0667 52.8489 46.26 52.9236 46.4158 53.0506L48.1916 54.5034C49.5013 53.9248 50.685 53.1053 51.6782 52.0897C52.7075 51.0806 53.5293 49.8879 54.0993 48.5761L52.6371 46.7759C52.515 46.6248 52.4427 46.4408 52.43 46.2485C52.4173 46.0561 52.4648 45.8646 52.5661 45.6993L55.4548 41.3291C55.5464 41.1791 55.6715 41.0513 55.8207 40.9554C55.9699 40.8594 56.1395 40.7977 56.3165 40.7748C56.4936 40.752 56.6737 40.7686 56.8433 40.8235C57.0129 40.8784 57.1676 40.9701 57.2958 41.0918L59.5807 43.3492C59.8416 43.6057 60.0481 43.91 60.1883 44.2448C60.3285 44.5796 60.3996 44.9382 60.3975 45.2999ZM41.5737 56.813L43.8527 59.1284C44.0306 59.3151 44.2551 59.4533 44.5042 59.5294C44.7533 59.6055 45.0184 59.6169 45.2734 59.5625C48.702 58.8269 51.8394 57.1362 54.3064 54.6945C56.7698 52.1857 58.4586 49.0475 59.1781 45.6414C59.2333 45.3836 59.2221 45.1164 59.1456 44.8639C59.0692 44.6113 58.9298 44.3813 58.7401 44.1943L56.4552 41.9369L53.6671 46.1566L55.2417 48.0899C55.3016 48.1639 55.3421 48.2511 55.3596 48.344C55.3772 48.4368 55.3712 48.5324 55.3423 48.6224C54.7375 50.2277 53.7773 51.6825 52.5306 52.8827C51.3451 54.1241 49.8882 55.0877 48.2686 55.7016C48.1706 55.7276 48.0673 55.7285 47.9688 55.7041C47.8703 55.6798 47.7799 55.6311 47.7063 55.5627L45.7943 53.9998L41.5737 56.813Z" fill="#E41BE4"/>
</g>
<g filter="url(#filter1_f)">
<path d="M60.3975 45.2999C60.397 45.4946 60.3752 45.6886 60.3324 45.8788C59.5667 49.4984 57.7713 52.8331 55.1529 55.499C52.5288 58.1081 49.1876 59.9175 45.5338 60.7086C45.0784 60.8019 44.6062 60.779 44.1625 60.6421C43.7188 60.5052 43.3185 60.259 43.0003 59.9271L40.7213 57.6118C40.6069 57.4935 40.5194 57.353 40.4643 57.1994C40.4092 57.0458 40.3879 56.8826 40.4017 56.7204C40.4196 56.5522 40.475 56.3899 40.564 56.2449C40.653 56.0999 40.7733 55.9757 40.9166 55.8811L45.2911 52.9869C45.4609 52.8783 45.6617 52.826 45.8642 52.8374C46.0667 52.8489 46.26 52.9236 46.4158 53.0506L48.1916 54.5034C49.5013 53.9248 50.685 53.1053 51.6782 52.0897C52.7075 51.0806 53.5293 49.8879 54.0993 48.5761L52.6371 46.7759C52.515 46.6248 52.4427 46.4408 52.43 46.2485C52.4173 46.0561 52.4648 45.8646 52.5661 45.6993L55.4548 41.3291C55.5464 41.1791 55.6715 41.0513 55.8207 40.9554C55.9699 40.8594 56.1395 40.7977 56.3165 40.7748C56.4936 40.752 56.6737 40.7686 56.8433 40.8235C57.0129 40.8784 57.1676 40.9701 57.2958 41.0918L59.5807 43.3492C59.8416 43.6057 60.0481 43.91 60.1883 44.2448C60.3285 44.5796 60.3996 44.9382 60.3975 45.2999ZM41.5737 56.813L43.8527 59.1284C44.0306 59.3151 44.2551 59.4533 44.5042 59.5294C44.7533 59.6055 45.0184 59.6169 45.2734 59.5625C48.702 58.8269 51.8394 57.1362 54.3064 54.6945C56.7698 52.1857 58.4586 49.0475 59.1781 45.6414C59.2333 45.3836 59.2221 45.1164 59.1456 44.8639C59.0692 44.6113 58.9298 44.3813 58.7401 44.1943L56.4552 41.9369L53.6671 46.1566L55.2417 48.0899C55.3016 48.1639 55.3421 48.2511 55.3596 48.344C55.3772 48.4368 55.3712 48.5324 55.3423 48.6224C54.7375 50.2277 53.7773 51.6825 52.5306 52.8827C51.3451 54.1241 49.8882 55.0877 48.2686 55.7016C48.1706 55.7276 48.0673 55.7285 47.9688 55.7041C47.8703 55.6798 47.7799 55.6311 47.7063 55.5627L45.7943 53.9998L41.5737 56.813Z" fill="#E41BE4"/>
</g>
<g filter="url(#filter2_f)">
<path d="M60.3975 45.2999C60.397 45.4946 60.3752 45.6886 60.3324 45.8788C59.5667 49.4984 57.7713 52.8331 55.1529 55.499C52.5288 58.1081 49.1876 59.9175 45.5338 60.7086C45.0784 60.8019 44.6062 60.779 44.1625 60.6421C43.7188 60.5052 43.3185 60.259 43.0003 59.9271L40.7213 57.6118C40.6069 57.4935 40.5194 57.353 40.4643 57.1994C40.4092 57.0458 40.3879 56.8826 40.4017 56.7204C40.4196 56.5522 40.475 56.3899 40.564 56.2449C40.653 56.0999 40.7733 55.9757 40.9166 55.8811L45.2911 52.9869C45.4609 52.8783 45.6617 52.826 45.8642 52.8374C46.0667 52.8489 46.26 52.9236 46.4158 53.0506L48.1916 54.5034C49.5013 53.9248 50.685 53.1053 51.6782 52.0897C52.7075 51.0806 53.5293 49.8879 54.0993 48.5761L52.6371 46.7759C52.515 46.6248 52.4427 46.4408 52.43 46.2485C52.4173 46.0561 52.4648 45.8646 52.5661 45.6993L55.4548 41.3291C55.5464 41.1791 55.6715 41.0513 55.8207 40.9554C55.9699 40.8594 56.1395 40.7977 56.3165 40.7748C56.4936 40.752 56.6737 40.7686 56.8433 40.8235C57.0129 40.8784 57.1676 40.9701 57.2958 41.0918L59.5807 43.3492C59.8416 43.6057 60.0481 43.91 60.1883 44.2448C60.3285 44.5796 60.3996 44.9382 60.3975 45.2999ZM41.5737 56.813L43.8527 59.1284C44.0306 59.3151 44.2551 59.4533 44.5042 59.5294C44.7533 59.6055 45.0184 59.6169 45.2734 59.5625C48.702 58.8269 51.8394 57.1362 54.3064 54.6945C56.7698 52.1857 58.4586 49.0475 59.1781 45.6414C59.2333 45.3836 59.2221 45.1164 59.1456 44.8639C59.0692 44.6113 58.9298 44.3813 58.7401 44.1943L56.4552 41.9369L53.6671 46.1566L55.2417 48.0899C55.3016 48.1639 55.3421 48.2511 55.3596 48.344C55.3772 48.4368 55.3712 48.5324 55.3423 48.6224C54.7375 50.2277 53.7773 51.6825 52.5306 52.8827C51.3451 54.1241 49.8882 55.0877 48.2686 55.7016C48.1706 55.7276 48.0673 55.7285 47.9688 55.7041C47.8703 55.6798 47.7799 55.6311 47.7063 55.5627L45.7943 53.9998L41.5737 56.813Z" fill="#E41BE4"/>
</g>
<g filter="url(#filter3_f)">
<path d="M60.3975 45.2999C60.397 45.4946 60.3752 45.6886 60.3324 45.8788C59.5667 49.4984 57.7713 52.8331 55.1529 55.499C52.5288 58.1081 49.1876 59.9175 45.5338 60.7086C45.0784 60.8019 44.6062 60.779 44.1625 60.6421C43.7188 60.5052 43.3185 60.259 43.0003 59.9271L40.7213 57.6118C40.6069 57.4935 40.5194 57.353 40.4643 57.1994C40.4092 57.0458 40.3879 56.8826 40.4017 56.7204C40.4196 56.5522 40.475 56.3899 40.564 56.2449C40.653 56.0999 40.7733 55.9757 40.9166 55.8811L45.2911 52.9869C45.4609 52.8783 45.6617 52.826 45.8642 52.8374C46.0667 52.8489 46.26 52.9236 46.4158 53.0506L48.1916 54.5034C49.5013 53.9248 50.685 53.1053 51.6782 52.0897C52.7075 51.0806 53.5293 49.8879 54.0993 48.5761L52.6371 46.7759C52.515 46.6248 52.4427 46.4408 52.43 46.2485C52.4173 46.0561 52.4648 45.8646 52.5661 45.6993L55.4548 41.3291C55.5464 41.1791 55.6715 41.0513 55.8207 40.9554C55.9699 40.8594 56.1395 40.7977 56.3165 40.7748C56.4936 40.752 56.6737 40.7686 56.8433 40.8235C57.0129 40.8784 57.1676 40.9701 57.2958 41.0918L59.5807 43.3492C59.8416 43.6057 60.0481 43.91 60.1883 44.2448C60.3285 44.5796 60.3996 44.9382 60.3975 45.2999ZM41.5737 56.813L43.8527 59.1284C44.0306 59.3151 44.2551 59.4533 44.5042 59.5294C44.7533 59.6055 45.0184 59.6169 45.2734 59.5625C48.702 58.8269 51.8394 57.1362 54.3064 54.6945C56.7698 52.1857 58.4586 49.0475 59.1781 45.6414C59.2333 45.3836 59.2221 45.1164 59.1456 44.8639C59.0692 44.6113 58.9298 44.3813 58.7401 44.1943L56.4552 41.9369L53.6671 46.1566L55.2417 48.0899C55.3016 48.1639 55.3421 48.2511 55.3596 48.344C55.3772 48.4368 55.3712 48.5324 55.3423 48.6224C54.7375 50.2277 53.7773 51.6825 52.5306 52.8827C51.3451 54.1241 49.8882 55.0877 48.2686 55.7016C48.1706 55.7276 48.0673 55.7285 47.9688 55.7041C47.8703 55.6798 47.7799 55.6311 47.7063 55.5627L45.7943 53.9998L41.5737 56.813Z" fill="#E41BE4"/>
</g>
<g filter="url(#filter4_f)">
<path d="M60.3975 45.2999C60.397 45.4946 60.3752 45.6886 60.3324 45.8788C59.5667 49.4984 57.7713 52.8331 55.1529 55.499C52.5288 58.1081 49.1876 59.9175 45.5338 60.7086C45.0784 60.8019 44.6062 60.779 44.1625 60.6421C43.7188 60.5052 43.3185 60.259 43.0003 59.9271L40.7213 57.6118C40.6069 57.4935 40.5194 57.353 40.4643 57.1994C40.4092 57.0458 40.3879 56.8826 40.4017 56.7204C40.4196 56.5522 40.475 56.3899 40.564 56.2449C40.653 56.0999 40.7733 55.9757 40.9166 55.8811L45.2911 52.9869C45.4609 52.8783 45.6617 52.826 45.8642 52.8374C46.0667 52.8489 46.26 52.9236 46.4158 53.0506L48.1916 54.5034C49.5013 53.9248 50.685 53.1053 51.6782 52.0897C52.7075 51.0806 53.5293 49.8879 54.0993 48.5761L52.6371 46.7759C52.515 46.6248 52.4427 46.4408 52.43 46.2485C52.4173 46.0561 52.4648 45.8646 52.5661 45.6993L55.4548 41.3291C55.5464 41.1791 55.6715 41.0513 55.8207 40.9554C55.9699 40.8594 56.1395 40.7977 56.3165 40.7748C56.4936 40.752 56.6737 40.7686 56.8433 40.8235C57.0129 40.8784 57.1676 40.9701 57.2958 41.0918L59.5807 43.3492C59.8416 43.6057 60.0481 43.91 60.1883 44.2448C60.3285 44.5796 60.3996 44.9382 60.3975 45.2999ZM41.5737 56.813L43.8527 59.1284C44.0306 59.3151 44.2551 59.4533 44.5042 59.5294C44.7533 59.6055 45.0184 59.6169 45.2734 59.5625C48.702 58.8269 51.8394 57.1362 54.3064 54.6945C56.7698 52.1857 58.4586 49.0475 59.1781 45.6414C59.2333 45.3836 59.2221 45.1164 59.1456 44.8639C59.0692 44.6113 58.9298 44.3813 58.7401 44.1943L56.4552 41.9369L53.6671 46.1566L55.2417 48.0899C55.3016 48.1639 55.3421 48.2511 55.3596 48.344C55.3772 48.4368 55.3712 48.5324 55.3423 48.6224C54.7375 50.2277 53.7773 51.6825 52.5306 52.8827C51.3451 54.1241 49.8882 55.0877 48.2686 55.7016C48.1706 55.7276 48.0673 55.7285 47.9688 55.7041C47.8703 55.6798 47.7799 55.6311 47.7063 55.5627L45.7943 53.9998L41.5737 56.813Z" fill="#E41BE4"/>
</g>
<path d="M60.3975 45.2999C60.397 45.4946 60.3752 45.6886 60.3324 45.8788C59.5667 49.4984 57.7713 52.8331 55.1529 55.499C52.5288 58.1081 49.1876 59.9175 45.5338 60.7086C45.0784 60.8019 44.6062 60.779 44.1625 60.6421C43.7188 60.5052 43.3185 60.259 43.0003 59.9271L40.7213 57.6118C40.6069 57.4935 40.5194 57.353 40.4643 57.1994C40.4092 57.0458 40.3879 56.8826 40.4017 56.7204C40.4196 56.5522 40.475 56.3899 40.564 56.2449C40.653 56.0999 40.7733 55.9757 40.9166 55.8811L45.2911 52.9869C45.4609 52.8783 45.6617 52.826 45.8642 52.8374C46.0667 52.8489 46.26 52.9236 46.4158 53.0506L48.1916 54.5034C49.5013 53.9248 50.685 53.1053 51.6782 52.0897C52.7075 51.0806 53.5293 49.8879 54.0993 48.5761L52.6371 46.7759C52.515 46.6248 52.4427 46.4408 52.43 46.2485C52.4173 46.0561 52.4648 45.8646 52.5661 45.6993L55.4548 41.3291C55.5464 41.1791 55.6715 41.0513 55.8207 40.9554C55.9699 40.8594 56.1395 40.7977 56.3165 40.7748C56.4936 40.752 56.6737 40.7686 56.8433 40.8235C57.0129 40.8784 57.1676 40.9701 57.2958 41.0918L59.5807 43.3492C59.8416 43.6057 60.0481 43.91 60.1883 44.2448C60.3285 44.5796 60.3996 44.9382 60.3975 45.2999ZM41.5737 56.813L43.8527 59.1284C44.0306 59.3151 44.2551 59.4533 44.5042 59.5294C44.7533 59.6055 45.0184 59.6169 45.2734 59.5625C48.702 58.8269 51.8394 57.1362 54.3064 54.6945C56.7698 52.1857 58.4586 49.0475 59.1781 45.6414C59.2333 45.3836 59.2221 45.1164 59.1456 44.8639C59.0692 44.6113 58.9298 44.3813 58.7401 44.1943L56.4552 41.9369L53.6671 46.1566L55.2417 48.0899C55.3016 48.1639 55.3421 48.2511 55.3596 48.344C55.3772 48.4368 55.3712 48.5324 55.3423 48.6224C54.7375 50.2277 53.7773 51.6825 52.5306 52.8827C51.3451 54.1241 49.8882 55.0877 48.2686 55.7016C48.1706 55.7276 48.0673 55.7285 47.9688 55.7041C47.8703 55.6798 47.7799 55.6311 47.7063 55.5627L45.7943 53.9998L41.5737 56.813Z" fill="#F164E8"/>
<defs>
<filter id="filter0_f" x="35.3976" y="35.7649" width="30" height="30" filterUnits="userSpaceOnUse" color-interpolation-filters="sRGB">
<feFlood flood-opacity="0" result="BackgroundImageFix"/>
<feBlend mode="normal" in="SourceGraphic" in2="BackgroundImageFix" result="shape"/>
<feGaussianBlur stdDeviation="2.5" result="effect1_foregroundBlur"/>
</filter>
<filter id="filter1_f" x="30.3976" y="30.7649" width="40" height="40" filterUnits="userSpaceOnUse" color-interpolation-filters="sRGB">
<feFlood flood-opacity="0" result="BackgroundImageFix"/>
<feBlend mode="normal" in="SourceGraphic" in2="BackgroundImageFix" result="shape"/>
<feGaussianBlur stdDeviation="5" result="effect1_foregroundBlur"/>
</filter>
<filter id="filter2_f" x="20.3976" y="20.7649" width="60" height="60" filterUnits="userSpaceOnUse" color-interpolation-filters="sRGB">
<feFlood flood-opacity="0" result="BackgroundImageFix"/>
<feBlend mode="normal" in="SourceGraphic" in2="BackgroundImageFix" result="shape"/>
<feGaussianBlur stdDeviation="10" result="effect1_foregroundBlur"/>
</filter>
<filter id="filter3_f" x="10.3976" y="10.7649" width="80" height="80" filterUnits="userSpaceOnUse" color-interpolation-filters="sRGB">
<feFlood flood-opacity="0" result="BackgroundImageFix"/>
<feBlend mode="normal" in="SourceGraphic" in2="BackgroundImageFix" result="shape"/>
<feGaussianBlur stdDeviation="15" result="effect1_foregroundBlur"/>
</filter>
<filter id="filter4_f" x="0.397583" y="0.764893" width="100" height="100" filterUnits="userSpaceOnUse" color-interpolation-filters="sRGB">
<feFlood flood-opacity="0" result="BackgroundImageFix"/>
<feBlend mode="normal" in="SourceGraphic" in2="BackgroundImageFix" result="shape"/>
<feGaussianBlur stdDeviation="20" result="effect1_foregroundBlur"/>
</filter>
</defs>
</svg>
