<svg width="66" height="36" viewBox="0 0 66 36" fill="none" xmlns="http://www.w3.org/2000/svg">
<path d="M65.6689 17.1472L48.8671 0.345292C48.64 0.11819 48.3421 0.00688166 48.0452 0.00912464C48.0363 0.00912464 48.0295 0.00463867 48.0205 0.00463867L31.1556 0.00463867C30.5349 0.00463867 30.0313 0.508376 30.0313 1.12893C30.0313 1.13791 30.0358 1.14464 30.0358 1.1537C30.0346 1.45052 30.1459 1.74847 30.3719 1.97557L46.3891 17.9927L30.3382 34.0435C29.8874 34.4944 29.8874 35.2252 30.3382 35.676C30.6058 35.9436 30.9689 36.0325 31.3163 35.983H47.8563C48.2037 36.0324 48.5668 35.9436 48.8344 35.676L65.6678 18.8426C65.9017 18.6088 66.0085 18.3007 65.9995 17.9938C66.0086 17.6891 65.9017 17.381 65.6689 17.1472ZM47.5123 33.7344H33.9124L48.8029 18.8438C49.0367 18.61 49.1436 18.3019 49.1346 17.995C49.1436 17.6892 49.0367 17.381 48.8029 17.1472L33.9101 2.25323L47.5156 2.25323L63.255 17.9926L47.5123 33.7344Z" fill="#9ACAEB"/>
<path d="M35.6689 17.1472L18.8671 0.345292C18.64 0.11819 18.3421 0.00688166 18.0452 0.00912464C18.0363 0.00912464 18.0295 0.00463867 18.0205 0.00463867L1.15557 0.00463867C0.53492 0.00463867 0.0312759 0.508376 0.0312759 1.12893C0.0312759 1.13791 0.0357619 1.14464 0.0357619 1.1537C0.0346404 1.45052 0.145949 1.74847 0.371929 1.97557L16.3891 17.9927L0.338191 34.0435C-0.112649 34.4944 -0.112649 35.2252 0.338191 35.676C0.60576 35.9436 0.968937 36.0325 1.31632 35.983H17.8563C18.2037 36.0324 18.5668 35.9436 18.8344 35.676L35.6678 18.8426C35.9016 18.6088 36.0085 18.3007 35.9995 17.9938C36.0086 17.6891 35.9017 17.381 35.6689 17.1472ZM17.5123 33.7344H3.91239L18.8029 18.8438C19.0367 18.61 19.1436 18.3019 19.1346 17.995C19.1436 17.6892 19.0367 17.381 18.8029 17.1472L3.91014 2.25323L17.5156 2.25323L33.255 17.9926L17.5123 33.7344Z" fill="#9ACAEB"/>
</svg>
