<svg width="65" height="36" viewBox="0 0 65 36" fill="none" xmlns="http://www.w3.org/2000/svg">
<path d="M0.331095 18.8513L17.1329 35.6532C17.36 35.8803 17.658 35.9917 17.9548 35.9894C17.9638 35.9894 17.9705 35.9939 17.9796 35.9939L34.8445 35.9939C35.4651 35.9939 35.9688 35.4902 35.9688 34.8696C35.9688 34.8606 35.9643 34.8539 35.9643 34.8448C35.9654 34.548 35.8541 34.2501 35.6281 34.023L19.611 18.0058L35.6618 1.95501C36.1127 1.50417 36.1127 0.773331 35.6618 0.322491C35.3943 0.0549241 35.0311 -0.0339584 34.6837 0.0155755L18.1438 0.015577C17.7964 -0.0338615 17.4332 0.0549256 17.1656 0.322492L0.332217 17.1559C0.0983832 17.3897 -0.00843971 17.6979 0.000532485 18.0048C-0.00853121 18.3095 0.0982918 18.6175 0.331095 18.8513ZM18.4878 2.26417L32.0876 2.26417L17.1971 17.1547C16.9633 17.3885 16.8565 17.6967 16.8654 18.0036C16.8565 18.3094 16.9633 18.6175 17.1971 18.8513L32.0899 33.7453L18.4844 33.7453L2.74501 18.0059L18.4878 2.26417Z" fill="#9ACAEB"/>
<path d="M29.3311 18.8513L46.1329 35.6532C46.36 35.8803 46.658 35.9917 46.9548 35.9894C46.9638 35.9894 46.9705 35.9939 46.9796 35.9939L63.8445 35.9939C64.4651 35.9939 64.9688 35.4902 64.9688 34.8696C64.9688 34.8606 64.9643 34.8539 64.9643 34.8448C64.9654 34.548 64.8541 34.2501 64.6281 34.023L48.611 18.0058L64.6619 1.95501C65.1127 1.50417 65.1127 0.773331 64.6619 0.322491C64.3943 0.0549241 64.0311 -0.0339584 63.6837 0.0155755L47.1438 0.015577C46.7964 -0.0338615 46.4332 0.0549256 46.1656 0.322492L29.3322 17.1559C29.0984 17.3897 28.9916 17.6979 29.0005 18.0048C28.9915 18.3095 29.0983 18.6175 29.3311 18.8513ZM47.4878 2.26417L61.0877 2.26417L46.1971 17.1547C45.9633 17.3885 45.8565 17.6967 45.8655 18.0036C45.8565 18.3094 45.9633 18.6175 46.1971 18.8513L61.0899 33.7453L47.4844 33.7453L31.745 18.0059L47.4878 2.26417Z" fill="#9ACAEB"/>
</svg>
