<svg width="21" height="21" viewBox="0 0 21 21" fill="none" xmlns="http://www.w3.org/2000/svg">
<path d="M20.3975 5.29991C20.397 5.49458 20.3752 5.68862 20.3324 5.87875C19.5667 9.49844 17.7713 12.8331 15.1529 15.499C12.5288 18.1081 9.18765 19.9175 5.53382 20.7086C5.07844 20.8019 4.60618 20.779 4.16247 20.6421C3.71876 20.5052 3.31853 20.259 3.00029 19.9271L0.721308 17.6118C0.606937 17.4935 0.519354 17.353 0.464275 17.1994C0.409196 17.0458 0.387859 16.8826 0.401658 16.7204C0.419601 16.5522 0.475007 16.3899 0.56398 16.2449C0.652952 16.0999 0.77333 15.9757 0.916649 15.8811L5.29112 12.9869C5.46085 12.8783 5.66173 12.826 5.8642 12.8374C6.06666 12.8489 6.26002 12.9236 6.41581 13.0506L8.19165 14.5034C9.50129 13.9248 10.685 13.1053 11.6782 12.0897C12.7075 11.0806 13.5293 9.88788 14.0993 8.57614L12.6371 6.77595C12.515 6.62475 12.4427 6.44077 12.43 6.24846C12.4173 6.05614 12.4648 5.86461 12.5661 5.69931L15.4548 1.32908C15.5464 1.17911 15.6715 1.05135 15.8207 0.95536C15.9699 0.859373 16.1395 0.797651 16.3165 0.774822C16.4936 0.751991 16.6737 0.768644 16.8433 0.823531C17.0129 0.878419 17.1676 0.970119 17.2958 1.09176L19.5807 3.34923C19.8416 3.60566 20.0481 3.91002 20.1883 4.2448C20.3285 4.57958 20.3996 4.93816 20.3975 5.29991ZM1.57371 16.813L3.85269 19.1284C4.0306 19.3151 4.25514 19.4533 4.50424 19.5294C4.75333 19.6055 5.01839 19.6169 5.27336 19.5625C8.70198 18.8269 11.8394 17.1362 14.3064 14.6945C16.7698 12.1857 18.4586 9.04753 19.1781 5.64143C19.2333 5.38361 19.2221 5.11645 19.1456 4.86389C19.0692 4.61133 18.9298 4.38127 18.7401 4.19433L16.4552 1.93686L13.6671 6.15659L15.2417 8.08991C15.3016 8.16392 15.3421 8.25114 15.3596 8.34396C15.3772 8.43678 15.3712 8.53238 15.3423 8.62244C14.7375 10.2277 13.7773 11.6825 12.5306 12.8827C11.3451 14.1241 9.88816 15.0877 8.2686 15.7016C8.17055 15.7276 8.06732 15.7285 7.96883 15.7041C7.87035 15.6798 7.77992 15.6311 7.70625 15.5627L5.79427 13.9998L1.57371 16.813Z" fill="#FA4EE9"/>
</svg>
