<svg width="15" height="23" viewBox="0 0 15 23" fill="none" xmlns="http://www.w3.org/2000/svg">
<path d="M13.6041 22.3004C13.7973 22.1115 13.9505 21.8872 14.055 21.6402C14.1596 21.3932 14.2134 21.1284 14.2134 20.861C14.2134 20.5936 14.1596 20.3289 14.055 20.0819C13.9505 19.8349 13.7973 19.6105 13.6041 19.4217L5.52079 11.5L13.6041 3.57833C13.9937 3.19658 14.2125 2.67883 14.2125 2.13896C14.2125 1.59908 13.9937 1.08132 13.6041 0.699577C13.2146 0.317831 12.6863 0.103371 12.1354 0.103371C11.5845 0.103371 11.0562 0.317831 10.6666 0.699578L1.10412 10.0708C0.910987 10.2597 0.757763 10.4841 0.653218 10.7311C0.548674 10.978 0.494862 11.2428 0.494863 11.5102C0.494863 11.7776 0.548674 12.0424 0.653218 12.2894C0.757763 12.5363 0.910987 12.7607 1.10412 12.9496L10.6666 22.3208C11.4583 23.0967 12.7916 23.0967 13.6041 22.3004Z" fill="white"/>
</svg>
